<svg width="1112" height="326" viewBox="0 0 1112 326" fill="none" xmlns="http://www.w3.org/2000/svg">
<mask id="path-1-outside-1_734_3989" maskUnits="userSpaceOnUse" x="0" y="0" width="1112" height="326" fill="black">
<rect fill="white" width="1112" height="326"/>
<path d="M44.245 324L2.52317 2.14595H58.1523L80.4039 198.835L108.616 2.54332H152.722L182.126 198.437L204.377 2.14595H259.212L217.887 324H162.258L130.867 120.159L101.066 324H44.245ZM295.808 324V2.14595H360.974V324H295.808ZM440.459 324V51.0201H390.791V2.14595H555.294V51.0201H506.42V324H440.459ZM585.284 324V2.14595H650.847V134.464H707.668V2.14595H773.231V324H707.668V181.351H650.847V324H585.284ZM823.54 324V2.14595H888.705V324H823.54ZM937.992 324V2.14595H983.687L1055.21 169.828V2.14595H1109.25V324H1065.54L994.019 145.987V324H937.992Z"/>
</mask>
<path d="M44.245 324L42.2616 324.257L42.4875 326H44.245V324ZM2.52317 2.14595V0.145951H0.247176L0.539764 2.40306L2.52317 2.14595ZM58.1523 2.14595L60.1396 1.92112L59.9388 0.145951H58.1523V2.14595ZM80.4039 198.835L78.4166 199.059L82.3836 199.119L80.4039 198.835ZM108.616 2.54332V0.543321H106.883L106.636 2.25879L108.616 2.54332ZM152.722 2.54332L154.7 2.24644L154.444 0.543321H152.722V2.54332ZM182.126 198.437L180.148 198.734L184.113 198.662L182.126 198.437ZM204.377 2.14595V0.145951H202.591L202.39 1.92067L204.377 2.14595ZM259.212 2.14595L261.195 2.40065L261.485 0.145951H259.212V2.14595ZM217.887 324V326H219.647L219.871 324.255L217.887 324ZM162.258 324L160.281 324.304L160.543 326H162.258V324ZM130.867 120.159L132.844 119.855L128.888 119.87L130.867 120.159ZM101.066 324V326H102.795L103.045 324.289L101.066 324ZM44.245 324L46.2284 323.743L4.50657 1.88884L2.52317 2.14595L0.539764 2.40306L42.2616 324.257L44.245 324ZM2.52317 2.14595V4.14595H58.1523V2.14595V0.145951H2.52317V2.14595ZM58.1523 2.14595L56.1649 2.37078L78.4166 199.059L80.4039 198.835L82.3912 198.61L60.1396 1.92112L58.1523 2.14595ZM80.4039 198.835L82.3836 199.119L110.595 2.82785L108.616 2.54332L106.636 2.25879L78.4242 198.55L80.4039 198.835ZM108.616 2.54332V4.54332H152.722V2.54332V0.543321H108.616V2.54332ZM152.722 2.54332L150.744 2.8402L180.148 198.734L182.126 198.437L184.104 198.14L154.7 2.24644L152.722 2.54332ZM182.126 198.437L184.113 198.662L206.365 2.37123L204.377 2.14595L202.39 1.92067L180.138 198.212L182.126 198.437ZM204.377 2.14595V4.14595H259.212V2.14595V0.145951H204.377V2.14595ZM259.212 2.14595L257.228 1.89125L215.904 323.745L217.887 324L219.871 324.255L261.195 2.40065L259.212 2.14595ZM217.887 324V322H162.258V324V326H217.887V324ZM162.258 324L164.235 323.696L132.844 119.855L130.867 120.159L128.891 120.464L160.281 324.304L162.258 324ZM130.867 120.159L128.888 119.87L99.0872 323.711L101.066 324L103.045 324.289L132.846 120.448L130.867 120.159ZM101.066 324V322H44.245V324V326H101.066V324ZM295.808 324H293.808V326H295.808V324ZM295.808 2.14595V0.145951H293.808V2.14595H295.808ZM360.974 2.14595H362.974V0.145951H360.974V2.14595ZM360.974 324V326H362.974V324H360.974ZM295.808 324H297.808V2.14595H295.808H293.808V324H295.808ZM295.808 2.14595V4.14595H360.974V2.14595V0.145951H295.808V2.14595ZM360.974 2.14595H358.974V324H360.974H362.974V2.14595H360.974ZM360.974 324V322H295.808V324V326H360.974V324ZM440.459 324H438.459V326H440.459V324ZM440.459 51.0201H442.459V49.0201H440.459V51.0201ZM390.791 51.0201H388.791V53.0201H390.791V51.0201ZM390.791 2.14595V0.145951H388.791V2.14595H390.791ZM555.294 2.14595H557.294V0.145951H555.294V2.14595ZM555.294 51.0201V53.0201H557.294V51.0201H555.294ZM506.42 51.0201V49.0201H504.42V51.0201H506.42ZM506.42 324V326H508.42V324H506.42ZM440.459 324H442.459V51.0201H440.459H438.459V324H440.459ZM440.459 51.0201V49.0201H390.791V51.0201V53.0201H440.459V51.0201ZM390.791 51.0201H392.791V2.14595H390.791H388.791V51.0201H390.791ZM390.791 2.14595V4.14595H555.294V2.14595V0.145951H390.791V2.14595ZM555.294 2.14595H553.294V51.0201H555.294H557.294V2.14595H555.294ZM555.294 51.0201V49.0201H506.42V51.0201V53.0201H555.294V51.0201ZM506.42 51.0201H504.42V324H506.42H508.42V51.0201H506.42ZM506.42 324V322H440.459V324V326H506.42V324ZM585.284 324H583.284V326H585.284V324ZM585.284 2.14595V0.145951H583.284V2.14595H585.284ZM650.847 2.14595H652.847V0.145951H650.847V2.14595ZM650.847 134.464H648.847V136.464H650.847V134.464ZM707.668 134.464V136.464H709.668V134.464H707.668ZM707.668 2.14595V0.145951H705.668V2.14595H707.668ZM773.231 2.14595H775.231V0.145951H773.231V2.14595ZM773.231 324V326H775.231V324H773.231ZM707.668 324H705.668V326H707.668V324ZM707.668 181.351H709.668V179.351H707.668V181.351ZM650.847 181.351V179.351H648.847V181.351H650.847ZM650.847 324V326H652.847V324H650.847ZM585.284 324H587.284V2.14595H585.284H583.284V324H585.284ZM585.284 2.14595V4.14595H650.847V2.14595V0.145951H585.284V2.14595ZM650.847 2.14595H648.847V134.464H650.847H652.847V2.14595H650.847ZM650.847 134.464V136.464H707.668V134.464V132.464H650.847V134.464ZM707.668 134.464H709.668V2.14595H707.668H705.668V134.464H707.668ZM707.668 2.14595V4.14595H773.231V2.14595V0.145951H707.668V2.14595ZM773.231 2.14595H771.231V324H773.231H775.231V2.14595H773.231ZM773.231 324V322H707.668V324V326H773.231V324ZM707.668 324H709.668V181.351H707.668H705.668V324H707.668ZM707.668 181.351V179.351H650.847V181.351V183.351H707.668V181.351ZM650.847 181.351H648.847V324H650.847H652.847V181.351H650.847ZM650.847 324V322H585.284V324V326H650.847V324ZM823.54 324H821.54V326H823.54V324ZM823.54 2.14595V0.145951H821.54V2.14595H823.54ZM888.705 2.14595H890.705V0.145951H888.705V2.14595ZM888.705 324V326H890.705V324H888.705ZM823.54 324H825.54V2.14595H823.54H821.54V324H823.54ZM823.54 2.14595V4.14595H888.705V2.14595V0.145951H823.54V2.14595ZM888.705 2.14595H886.705V324H888.705H890.705V2.14595H888.705ZM888.705 324V322H823.54V324V326H888.705V324ZM937.992 324H935.992V326H937.992V324ZM937.992 2.14595V0.145951H935.992V2.14595H937.992ZM983.687 2.14595L985.527 1.36127L985.009 0.145951H983.687V2.14595ZM1055.21 169.828L1053.37 170.613L1057.21 169.828H1055.21ZM1055.21 2.14595V0.145951H1053.21V2.14595H1055.21ZM1109.25 2.14595H1111.25V0.145951H1109.25V2.14595ZM1109.25 324V326H1111.25V324H1109.25ZM1065.54 324L1063.69 324.746L1064.19 326H1065.54V324ZM994.019 145.987L995.874 145.241L992.019 145.987H994.019ZM994.019 324V326H996.019V324H994.019ZM937.992 324H939.992V2.14595H937.992H935.992V324H937.992ZM937.992 2.14595V4.14595H983.687V2.14595V0.145951H937.992V2.14595ZM983.687 2.14595L981.848 2.93063L1053.37 170.613L1055.21 169.828L1057.05 169.043L985.527 1.36127L983.687 2.14595ZM1055.21 169.828H1057.21V2.14595H1055.21H1053.21V169.828H1055.21ZM1055.21 2.14595V4.14595H1109.25V2.14595V0.145951H1055.21V2.14595ZM1109.25 2.14595H1107.25V324H1109.25H1111.25V2.14595H1109.25ZM1109.25 324V322H1065.54V324V326H1109.25V324ZM1065.54 324L1067.4 323.254L995.874 145.241L994.019 145.987L992.163 146.733L1063.69 324.746L1065.54 324ZM994.019 145.987H992.019V324H994.019H996.019V145.987H994.019ZM994.019 324V322H937.992V324V326H994.019V324Z" fill="white" fill-opacity="0.3" mask="url(#path-1-outside-1_734_3989)"/>
</svg>
