<svg width="161" height="312" viewBox="0 0 161 312" fill="none" xmlns="http://www.w3.org/2000/svg">
<g opacity="0.3">
<path d="M4.17114 0.191406C1.86899 0.191406 0 2.0604 0 4.36255C0 6.6647 1.86899 8.53369 4.17114 8.53369C6.47328 8.53369 8.34227 6.6647 8.34227 4.36255C8.34227 2.0604 6.47328 0.191406 4.17114 0.191406Z" fill="white"/>
<path d="M4.17114 76.058C1.86899 76.058 0 77.927 0 80.2291C0 82.5313 1.86899 84.4003 4.17114 84.4003C6.47328 84.4003 8.34227 82.5313 8.34227 80.2291C8.34227 77.927 6.47328 76.058 4.17114 76.058Z" fill="white"/>
<path d="M4.17114 151.925C1.86899 151.925 0 153.794 0 156.096C0 158.398 1.86899 160.267 4.17114 160.267C6.47328 160.267 8.34227 158.398 8.34227 156.096C8.34227 153.794 6.47328 151.925 4.17114 151.925Z" fill="white"/>
<path d="M80.0377 0.191406C77.7356 0.191406 75.8666 2.0604 75.8666 4.36255C75.8666 6.6647 77.7356 8.53369 80.0377 8.53369C82.3399 8.53369 84.2089 6.6647 84.2089 4.36255C84.2089 2.0604 82.3399 0.191406 80.0377 0.191406Z" fill="white"/>
<path d="M80.0377 76.058C77.7356 76.058 75.8666 77.927 75.8666 80.2291C75.8666 82.5313 77.7356 84.4003 80.0377 84.4003C82.3399 84.4003 84.2089 82.5313 84.2089 80.2291C84.2089 77.927 82.3399 76.058 80.0377 76.058Z" fill="white"/>
<path d="M80.0377 151.925C77.7356 151.925 75.8666 153.794 75.8666 156.096C75.8666 158.398 77.7356 160.267 80.0377 160.267C82.3399 160.267 84.2089 158.398 84.2089 156.096C84.2089 153.794 82.3399 151.925 80.0377 151.925Z" fill="white"/>
<path d="M155.904 0.191406C153.602 0.191406 151.733 2.0604 151.733 4.36255C151.733 6.6647 153.602 8.53369 155.904 8.53369C158.206 8.53369 160.075 6.6647 160.075 4.36255C160.075 2.0604 158.206 0.191406 155.904 0.191406Z" fill="white"/>
<path d="M155.904 76.058C153.602 76.058 151.733 77.927 151.733 80.2291C151.733 82.5313 153.602 84.4003 155.904 84.4003C158.206 84.4003 160.075 82.5313 160.075 80.2291C160.075 77.927 158.206 76.058 155.904 76.058Z" fill="white"/>
<path d="M155.904 151.925C153.602 151.925 151.733 153.794 151.733 156.096C151.733 158.398 153.602 160.267 155.904 160.267C158.206 160.267 160.075 158.398 160.075 156.096C160.075 153.794 158.206 151.925 155.904 151.925Z" fill="white"/>
<path d="M4.17114 227.791C1.86899 227.791 0 229.66 0 231.962C0 234.264 1.86899 236.133 4.17114 236.133C6.47328 236.133 8.34227 234.264 8.34227 231.962C8.34227 229.66 6.47328 227.791 4.17114 227.791Z" fill="white"/>
<path d="M4.17114 303.658C1.86899 303.658 0 305.527 0 307.829C0 310.131 1.86899 312 4.17114 312C6.47328 312 8.34227 310.131 8.34227 307.829C8.34227 305.527 6.47328 303.658 4.17114 303.658Z" fill="white"/>
<path d="M80.0377 236.133L84.2089 231.962C84.2089 231.962 82.3414 227.791 80.0377 227.791C77.7341 227.791 75.8666 229.659 75.8666 231.962C75.8666 234.266 77.7341 236.133 80.0377 236.133Z" fill="white"/>
<path d="M80.0377 303.658C77.7356 303.658 75.8666 305.527 75.8666 307.829C75.8666 310.131 80.0377 312 80.0377 312L84.2089 307.829C84.2089 305.527 82.3399 303.658 80.0377 303.658Z" fill="white"/>
<path d="M155.904 236.133C158.208 236.133 160.075 234.266 160.075 231.962C160.075 229.659 158.208 227.791 155.904 227.791C153.601 227.791 151.733 229.659 151.733 231.962C151.733 234.266 153.601 236.133 155.904 236.133Z" fill="white"/>
<path d="M155.904 303.658C153.602 303.658 151.733 305.527 151.733 307.829C151.733 310.131 153.602 312 155.904 312C158.206 312 160.075 310.131 160.075 307.829C160.075 305.527 158.206 303.658 155.904 303.658Z" fill="white"/>
</g>
</svg>
