<svg width="169" height="1146" viewBox="0 0 169 1146" fill="none" xmlns="http://www.w3.org/2000/svg">
<g filter="url(#filter0_d_241_2)">
<g opacity="0.3">
<path d="M8.17114 379C5.86899 379 4 380.869 4 383.171C4 385.473 5.86899 387.342 8.17114 387.342C10.4733 387.342 12.3423 385.473 12.3423 383.171C12.3423 380.869 10.4733 379 8.17114 379Z" fill="white"/>
<path d="M8.17114 454.867C5.86899 454.867 4 456.736 4 459.038C4 461.34 5.86899 463.209 8.17114 463.209C10.4733 463.209 12.3423 461.34 12.3423 459.038C12.3423 456.736 10.4733 454.867 8.17114 454.867Z" fill="white"/>
<path d="M8.17114 530.733C5.86899 530.733 4 532.602 4 534.904C4 537.206 5.86899 539.075 8.17114 539.075C10.4733 539.075 12.3423 537.206 12.3423 534.904C12.3423 532.602 10.4733 530.733 8.17114 530.733Z" fill="white"/>
<path d="M84.0377 387.342C86.3414 387.342 88.2089 385.475 88.2089 383.171C88.2089 380.867 86.3414 379 84.0377 379C81.7341 379 79.8666 380.867 79.8666 383.171C79.8666 385.475 81.7341 387.342 84.0377 387.342Z" fill="white"/>
<path d="M84.0377 454.867C81.7356 454.867 79.8666 456.736 79.8666 459.038C79.8666 461.34 81.7356 463.209 84.0377 463.209C86.3399 463.209 88.2089 461.34 88.2089 459.038C88.2089 456.736 86.3399 454.867 84.0377 454.867Z" fill="white"/>
<path d="M84.0377 530.733C81.7356 530.733 79.8666 532.602 79.8666 534.904C79.8666 537.206 81.7356 539.075 84.0377 539.075C86.3399 539.075 88.2089 537.206 88.2089 534.904C88.2089 532.602 86.3399 530.733 84.0377 530.733Z" fill="white"/>
<path d="M159.904 387.342C162.208 387.342 164.075 385.475 164.075 383.171C164.075 380.867 162.208 379 159.904 379C157.601 379 155.733 380.867 155.733 383.171C155.733 385.475 157.601 387.342 159.904 387.342Z" fill="white"/>
<path d="M159.904 454.867C157.602 454.867 155.733 456.736 155.733 459.038C155.733 461.34 157.602 463.209 159.904 463.209C162.206 463.209 164.075 461.34 164.075 459.038C164.075 456.736 162.206 454.867 159.904 454.867Z" fill="white"/>
<path d="M159.904 530.733C157.602 530.733 155.733 532.602 155.733 534.904C155.733 537.206 157.602 539.075 159.904 539.075C162.206 539.075 164.075 537.206 164.075 534.904C164.075 532.602 162.206 530.733 159.904 530.733Z" fill="white"/>
<path d="M8.17114 606.6C5.86899 606.6 4 608.469 4 610.771C4 613.073 5.86899 614.942 8.17114 614.942C10.4733 614.942 12.3423 613.073 12.3423 610.771C12.3423 608.469 10.4733 606.6 8.17114 606.6Z" fill="white"/>
<path d="M8.17114 682.466C5.86899 682.466 4 684.335 4 686.637C4 688.94 5.86899 690.809 8.17114 690.809C10.4733 690.809 12.3423 688.94 12.3423 686.637C12.3423 684.335 10.4733 682.466 8.17114 682.466Z" fill="white"/>
<path d="M8.17114 758.333C5.86899 758.333 4 760.202 4 762.504C4 764.806 5.86899 766.675 8.17114 766.675C10.4733 766.675 12.3423 764.806 12.3423 762.504C12.3423 760.202 10.4733 758.333 8.17114 758.333Z" fill="white"/>
<path d="M84.0377 606.6C81.7356 606.6 79.8666 608.469 79.8666 610.771C79.8666 613.073 81.7356 614.942 84.0377 614.942C86.3399 614.942 88.2089 613.073 88.2089 610.771C88.2089 608.469 86.3399 606.6 84.0377 606.6Z" fill="white"/>
<path d="M84.0377 682.466C81.7356 682.466 79.8666 684.335 79.8666 686.637C79.8666 688.94 81.7356 690.809 84.0377 690.809C86.3399 690.809 88.2089 688.94 88.2089 686.637C88.2089 684.335 86.3399 682.466 84.0377 682.466Z" fill="white"/>
<path d="M84.0377 758.333C81.7356 758.333 79.8666 760.202 79.8666 762.504C79.8666 764.806 81.7356 766.675 84.0377 766.675C86.3399 766.675 88.2089 764.806 88.2089 762.504C88.2089 760.202 86.3399 758.333 84.0377 758.333Z" fill="white"/>
<path d="M159.904 606.6C157.602 606.6 155.733 608.469 155.733 610.771C155.733 613.073 157.602 614.942 159.904 614.942C162.206 614.942 164.075 613.073 164.075 610.771C164.075 608.469 162.206 606.6 159.904 606.6Z" fill="white"/>
<path d="M159.904 682.466C157.602 682.466 155.733 684.335 155.733 686.637C155.733 688.94 157.602 690.809 159.904 690.809C162.206 690.809 164.075 688.94 164.075 686.637C164.075 684.335 162.206 682.466 159.904 682.466Z" fill="white"/>
<path d="M159.904 758.333C157.602 758.333 155.733 760.202 155.733 762.504C155.733 764.806 157.602 766.675 159.904 766.675C162.206 766.675 164.075 764.806 164.075 762.504C164.075 760.202 162.206 758.333 159.904 758.333Z" fill="white"/>
<path d="M8.17114 834.191C5.86899 834.191 4 836.06 4 838.363C4 840.665 5.86899 842.534 8.17114 842.534C10.4733 842.534 12.3423 840.665 12.3423 838.363C12.3423 836.06 10.4733 834.191 8.17114 834.191Z" fill="white"/>
<path d="M8.17114 910.058C5.86899 910.058 4 911.927 4 914.229C4 916.531 5.86899 918.4 8.17114 918.4C10.4733 918.4 12.3423 916.531 12.3423 914.229C12.3423 911.927 10.4733 910.058 8.17114 910.058Z" fill="white"/>
<path d="M8.17114 985.925C5.86899 985.925 4 987.794 4 990.096C4 992.398 5.86899 994.267 8.17114 994.267C10.4733 994.267 12.3423 992.398 12.3423 990.096C12.3423 987.794 10.4733 985.925 8.17114 985.925Z" fill="white"/>
<path d="M84.0377 834.191C81.7356 834.191 79.8666 836.06 79.8666 838.363C79.8666 840.665 81.7356 842.534 84.0377 842.534C86.3399 842.534 88.2089 840.665 88.2089 838.363C88.2089 836.06 86.3399 834.191 84.0377 834.191Z" fill="white"/>
<path d="M84.0377 910.058C81.7356 910.058 79.8666 911.927 79.8666 914.229C79.8666 916.531 81.7356 918.4 84.0377 918.4C86.3399 918.4 88.2089 916.531 88.2089 914.229C88.2089 911.927 86.3399 910.058 84.0377 910.058Z" fill="white"/>
<path d="M84.0377 985.925C81.7356 985.925 79.8666 987.794 79.8666 990.096C79.8666 992.398 81.7356 994.267 84.0377 994.267C86.3399 994.267 88.2089 992.398 88.2089 990.096C88.2089 987.794 86.3399 985.925 84.0377 985.925Z" fill="white"/>
<path d="M159.904 834.191C157.602 834.191 155.733 836.06 155.733 838.363C155.733 840.665 157.602 842.534 159.904 842.534C162.206 842.534 164.075 840.665 164.075 838.363C164.075 836.06 162.206 834.191 159.904 834.191Z" fill="white"/>
<path d="M159.904 910.058C157.602 910.058 155.733 911.927 155.733 914.229C155.733 916.531 157.602 918.4 159.904 918.4C162.206 918.4 164.075 916.531 164.075 914.229C164.075 911.927 162.206 910.058 159.904 910.058Z" fill="white"/>
<path d="M159.904 985.925C157.602 985.925 155.733 987.794 155.733 990.096C155.733 992.398 157.602 994.267 159.904 994.267C162.206 994.267 164.075 992.398 164.075 990.096C164.075 987.794 162.206 985.925 159.904 985.925Z" fill="white"/>
<path d="M8.17114 1061.79C5.86899 1061.79 4 1063.66 4 1065.96C4 1068.26 5.86899 1070.13 8.17114 1070.13C10.4733 1070.13 12.3423 1068.26 12.3423 1065.96C12.3423 1063.66 10.4733 1061.79 8.17114 1061.79Z" fill="white"/>
<path d="M8.17114 1137.66C5.86899 1137.66 4 1139.53 4 1141.83C4 1144.13 5.86899 1146 8.17114 1146C10.4733 1146 12.3423 1144.13 12.3423 1141.83C12.3423 1139.53 10.4733 1137.66 8.17114 1137.66Z" fill="white"/>
<path d="M84.0377 1070.13C86.3414 1070.13 88.2089 1068.27 88.2089 1065.96C88.2089 1063.66 86.3414 1061.79 84.0377 1061.79C81.7341 1061.79 79.8666 1063.66 79.8666 1065.96C79.8666 1068.27 81.7341 1070.13 84.0377 1070.13Z" fill="white"/>
<path d="M84.0377 1137.66C81.7356 1137.66 79.8666 1139.53 79.8666 1141.83C79.8666 1144.13 81.7356 1146 84.0377 1146C86.3399 1146 88.2089 1144.13 88.2089 1141.83C88.2089 1139.53 86.3399 1137.66 84.0377 1137.66Z" fill="white"/>
<path d="M159.904 1070.13C162.208 1070.13 164.075 1068.27 164.075 1065.96C164.075 1063.66 162.208 1061.79 159.904 1061.79C157.601 1061.79 155.733 1063.66 155.733 1065.96C155.733 1068.27 157.601 1070.13 159.904 1070.13Z" fill="white"/>
<path d="M159.904 1137.66C157.602 1137.66 155.733 1139.53 155.733 1141.83C155.733 1144.13 157.602 1146 159.904 1146C162.206 1146 164.075 1144.13 164.075 1141.83C164.075 1139.53 162.206 1137.66 159.904 1137.66Z" fill="white"/>
</g>
<g opacity="0.3">
<path d="M8.17114 0.191406C5.86899 0.191406 4 2.0604 4 4.36255C4 6.6647 5.86899 8.53369 8.17114 8.53369C10.4733 8.53369 12.3423 6.6647 12.3423 4.36255C12.3423 2.0604 10.4733 0.191406 8.17114 0.191406Z" fill="white"/>
<path d="M8.17114 76.058C5.86899 76.058 4 77.927 4 80.2291C4 82.5313 5.86899 84.4003 8.17114 84.4003C10.4733 84.4003 12.3423 82.5313 12.3423 80.2291C12.3423 77.927 10.4733 76.058 8.17114 76.058Z" fill="white"/>
<path d="M8.17114 151.925C5.86899 151.925 4 153.794 4 156.096C4 158.398 5.86899 160.267 8.17114 160.267C10.4733 160.267 12.3423 158.398 12.3423 156.096C12.3423 153.794 10.4733 151.925 8.17114 151.925Z" fill="white"/>
<path d="M84.0377 0.191406C81.7356 0.191406 79.8666 2.0604 79.8666 4.36255C79.8666 6.6647 81.7356 8.53369 84.0377 8.53369C86.3399 8.53369 88.2089 6.6647 88.2089 4.36255C88.2089 2.0604 86.3399 0.191406 84.0377 0.191406Z" fill="white"/>
<path d="M84.0377 76.058C81.7356 76.058 79.8666 77.927 79.8666 80.2291C79.8666 82.5313 81.7356 84.4003 84.0377 84.4003C86.3399 84.4003 88.2089 82.5313 88.2089 80.2291C88.2089 77.927 86.3399 76.058 84.0377 76.058Z" fill="white"/>
<path d="M84.0377 151.925C81.7356 151.925 79.8666 153.794 79.8666 156.096C79.8666 158.398 81.7356 160.267 84.0377 160.267C86.3399 160.267 88.2089 158.398 88.2089 156.096C88.2089 153.794 86.3399 151.925 84.0377 151.925Z" fill="white"/>
<path d="M159.904 0.191406C157.602 0.191406 155.733 2.0604 155.733 4.36255C155.733 6.6647 157.602 8.53369 159.904 8.53369C162.206 8.53369 164.075 6.6647 164.075 4.36255C164.075 2.0604 162.206 0.191406 159.904 0.191406Z" fill="white"/>
<path d="M159.904 76.058C157.602 76.058 155.733 77.927 155.733 80.2291C155.733 82.5313 157.602 84.4003 159.904 84.4003C162.206 84.4003 164.075 82.5313 164.075 80.2291C164.075 77.927 162.206 76.058 159.904 76.058Z" fill="white"/>
<path d="M159.904 151.925C157.602 151.925 155.733 153.794 155.733 156.096C155.733 158.398 157.602 160.267 159.904 160.267C162.206 160.267 164.075 158.398 164.075 156.096C164.075 153.794 162.206 151.925 159.904 151.925Z" fill="white"/>
<path d="M8.17114 227.791C5.86899 227.791 4 229.66 4 231.962C4 234.264 5.86899 236.133 8.17114 236.133C10.4733 236.133 12.3423 234.264 12.3423 231.962C12.3423 229.66 10.4733 227.791 8.17114 227.791Z" fill="white"/>
<path d="M8.17114 303.658C5.86899 303.658 4 305.527 4 307.829C4 310.131 5.86899 312 8.17114 312C10.4733 312 12.3423 310.131 12.3423 307.829C12.3423 305.527 10.4733 303.658 8.17114 303.658Z" fill="white"/>
<path d="M84.0377 236.133L88.2089 231.962C88.2089 231.962 86.3414 227.791 84.0377 227.791C81.7341 227.791 79.8666 229.659 79.8666 231.962C79.8666 234.266 81.7341 236.133 84.0377 236.133Z" fill="white"/>
<path d="M84.0377 303.658C81.7356 303.658 79.8666 305.527 79.8666 307.829C79.8666 310.131 84.0377 312 84.0377 312L88.2089 307.829C88.2089 305.527 86.3399 303.658 84.0377 303.658Z" fill="white"/>
<path d="M159.904 236.133C162.208 236.133 164.075 234.266 164.075 231.962C164.075 229.659 162.208 227.791 159.904 227.791C157.601 227.791 155.733 229.659 155.733 231.962C155.733 234.266 157.601 236.133 159.904 236.133Z" fill="white"/>
<path d="M159.904 303.658C157.602 303.658 155.733 305.527 155.733 307.829C155.733 310.131 157.602 312 159.904 312C162.206 312 164.075 310.131 164.075 307.829C164.075 305.527 162.206 303.658 159.904 303.658Z" fill="white"/>
</g>
</g>
<defs>
<filter id="filter0_d_241_2" x="0" y="0.191406" width="168.075" height="1153.81" filterUnits="userSpaceOnUse" color-interpolation-filters="sRGB">
<feFlood flood-opacity="0" result="BackgroundImageFix"/>
<feColorMatrix in="SourceAlpha" type="matrix" values="0 0 0 0 0 0 0 0 0 0 0 0 0 0 0 0 0 0 127 0" result="hardAlpha"/>
<feOffset dy="4"/>
<feGaussianBlur stdDeviation="2"/>
<feComposite in2="hardAlpha" operator="out"/>
<feColorMatrix type="matrix" values="0 0 0 0 0 0 0 0 0 0 0 0 0 0 0 0 0 0 0.25 0"/>
<feBlend mode="normal" in2="BackgroundImageFix" result="effect1_dropShadow_241_2"/>
<feBlend mode="normal" in="SourceGraphic" in2="effect1_dropShadow_241_2" result="shape"/>
</filter>
</defs>
</svg>
