<svg width="161" height="767" viewBox="0 0 161 767" fill="none" xmlns="http://www.w3.org/2000/svg">
<g opacity="0.3">
<path d="M4.17114 0C1.86899 0 0 1.86899 0 4.17114C0 6.47328 1.86899 8.34227 4.17114 8.34227C6.47328 8.34227 8.34227 6.47328 8.34227 4.17114C8.34227 1.86899 6.47328 0 4.17114 0Z" fill="white"/>
<path d="M4.17114 75.8666C1.86899 75.8666 0 77.7356 0 80.0377C0 82.3399 1.86899 84.2089 4.17114 84.2089C6.47328 84.2089 8.34227 82.3399 8.34227 80.0377C8.34227 77.7356 6.47328 75.8666 4.17114 75.8666Z" fill="white"/>
<path d="M4.17114 151.733C1.86899 151.733 0 153.602 0 155.904C0 158.206 1.86899 160.075 4.17114 160.075C6.47328 160.075 8.34227 158.206 8.34227 155.904C8.34227 153.602 6.47328 151.733 4.17114 151.733Z" fill="white"/>
<path d="M80.0377 8.34227C82.3414 8.34227 84.2089 6.47479 84.2089 4.17114C84.2089 1.86748 82.3414 0 80.0377 0C77.7341 0 75.8666 1.86748 75.8666 4.17114C75.8666 6.47479 77.7341 8.34227 80.0377 8.34227Z" fill="white"/>
<path d="M80.0377 75.8666C77.7356 75.8666 75.8666 77.7356 75.8666 80.0377C75.8666 82.3399 77.7356 84.2089 80.0377 84.2089C82.3399 84.2089 84.2089 82.3399 84.2089 80.0377C84.2089 77.7356 82.3399 75.8666 80.0377 75.8666Z" fill="white"/>
<path d="M80.0377 151.733C77.7356 151.733 75.8666 153.602 75.8666 155.904C75.8666 158.206 77.7356 160.075 80.0377 160.075C82.3399 160.075 84.2089 158.206 84.2089 155.904C84.2089 153.602 82.3399 151.733 80.0377 151.733Z" fill="white"/>
<path d="M155.904 8.34227C158.208 8.34227 160.075 6.47479 160.075 4.17114C160.075 1.86748 158.208 0 155.904 0C153.601 0 151.733 1.86748 151.733 4.17114C151.733 6.47479 153.601 8.34227 155.904 8.34227Z" fill="white"/>
<path d="M155.904 75.8666C153.602 75.8666 151.733 77.7356 151.733 80.0377C151.733 82.3399 153.602 84.2089 155.904 84.2089C158.206 84.2089 160.075 82.3399 160.075 80.0377C160.075 77.7356 158.206 75.8666 155.904 75.8666Z" fill="white"/>
<path d="M155.904 151.733C153.602 151.733 151.733 153.602 151.733 155.904C151.733 158.206 153.602 160.075 155.904 160.075C158.206 160.075 160.075 158.206 160.075 155.904C160.075 153.602 158.206 151.733 155.904 151.733Z" fill="white"/>
<path d="M4.17114 227.6C1.86899 227.6 0 229.469 0 231.771C0 234.073 1.86899 235.942 4.17114 235.942C6.47328 235.942 8.34227 234.073 8.34227 231.771C8.34227 229.469 6.47328 227.6 4.17114 227.6Z" fill="white"/>
<path d="M4.17114 303.466C1.86899 303.466 0 305.335 0 307.637C0 309.94 1.86899 311.809 4.17114 311.809C6.47328 311.809 8.34227 309.94 8.34227 307.637C8.34227 305.335 6.47328 303.466 4.17114 303.466Z" fill="white"/>
<path d="M4.17114 379.333C1.86899 379.333 0 381.202 0 383.504C0 385.806 1.86899 387.675 4.17114 387.675C6.47328 387.675 8.34227 385.806 8.34227 383.504C8.34227 381.202 6.47328 379.333 4.17114 379.333Z" fill="white"/>
<path d="M80.0377 227.6C77.7356 227.6 75.8666 229.469 75.8666 231.771C75.8666 234.073 77.7356 235.942 80.0377 235.942C82.3399 235.942 84.2089 234.073 84.2089 231.771C84.2089 229.469 82.3399 227.6 80.0377 227.6Z" fill="white"/>
<path d="M80.0377 303.466C77.7356 303.466 75.8666 305.335 75.8666 307.637C75.8666 309.94 77.7356 311.809 80.0377 311.809C82.3399 311.809 84.2089 309.94 84.2089 307.637C84.2089 305.335 82.3399 303.466 80.0377 303.466Z" fill="white"/>
<path d="M80.0377 379.333C77.7356 379.333 75.8666 381.202 75.8666 383.504C75.8666 385.806 77.7356 387.675 80.0377 387.675C82.3399 387.675 84.2089 385.806 84.2089 383.504C84.2089 381.202 82.3399 379.333 80.0377 379.333Z" fill="white"/>
<path d="M155.904 227.6C153.602 227.6 151.733 229.469 151.733 231.771C151.733 234.073 153.602 235.942 155.904 235.942C158.206 235.942 160.075 234.073 160.075 231.771C160.075 229.469 158.206 227.6 155.904 227.6Z" fill="white"/>
<path d="M155.904 303.466C153.602 303.466 151.733 305.335 151.733 307.637C151.733 309.94 153.602 311.809 155.904 311.809C158.206 311.809 160.075 309.94 160.075 307.637C160.075 305.335 158.206 303.466 155.904 303.466Z" fill="white"/>
<path d="M155.904 379.333C153.602 379.333 151.733 381.202 151.733 383.504C151.733 385.806 153.602 387.675 155.904 387.675C158.206 387.675 160.075 385.806 160.075 383.504C160.075 381.202 158.206 379.333 155.904 379.333Z" fill="white"/>
<path d="M4.17114 455.191C1.86899 455.191 0 457.06 0 459.363C0 461.665 1.86899 463.534 4.17114 463.534C6.47328 463.534 8.34227 461.665 8.34227 459.363C8.34227 457.06 6.47328 455.191 4.17114 455.191Z" fill="white"/>
<path d="M4.17114 531.058C1.86899 531.058 0 532.927 0 535.229C0 537.531 1.86899 539.4 4.17114 539.4C6.47328 539.4 8.34227 537.531 8.34227 535.229C8.34227 532.927 6.47328 531.058 4.17114 531.058Z" fill="white"/>
<path d="M4.17114 606.925C1.86899 606.925 0 608.794 0 611.096C0 613.398 1.86899 615.267 4.17114 615.267C6.47328 615.267 8.34227 613.398 8.34227 611.096C8.34227 608.794 6.47328 606.925 4.17114 606.925Z" fill="white"/>
<path d="M80.0377 455.191C77.7356 455.191 75.8666 457.06 75.8666 459.363C75.8666 461.665 77.7356 463.534 80.0377 463.534C82.3399 463.534 84.2089 461.665 84.2089 459.363C84.2089 457.06 82.3399 455.191 80.0377 455.191Z" fill="white"/>
<path d="M80.0377 531.058C77.7356 531.058 75.8666 532.927 75.8666 535.229C75.8666 537.531 77.7356 539.4 80.0377 539.4C82.3399 539.4 84.2089 537.531 84.2089 535.229C84.2089 532.927 82.3399 531.058 80.0377 531.058Z" fill="white"/>
<path d="M80.0377 606.925C77.7356 606.925 75.8666 608.794 75.8666 611.096C75.8666 613.398 77.7356 615.267 80.0377 615.267C82.3399 615.267 84.2089 613.398 84.2089 611.096C84.2089 608.794 82.3399 606.925 80.0377 606.925Z" fill="white"/>
<path d="M155.904 455.191C153.602 455.191 151.733 457.06 151.733 459.363C151.733 461.665 153.602 463.534 155.904 463.534C158.206 463.534 160.075 461.665 160.075 459.363C160.075 457.06 158.206 455.191 155.904 455.191Z" fill="white"/>
<path d="M155.904 531.058C153.602 531.058 151.733 532.927 151.733 535.229C151.733 537.531 153.602 539.4 155.904 539.4C158.206 539.4 160.075 537.531 160.075 535.229C160.075 532.927 158.206 531.058 155.904 531.058Z" fill="white"/>
<path d="M155.904 606.925C153.602 606.925 151.733 608.794 151.733 611.096C151.733 613.398 153.602 615.267 155.904 615.267C158.206 615.267 160.075 613.398 160.075 611.096C160.075 608.794 158.206 606.925 155.904 606.925Z" fill="white"/>
<path d="M4.17114 682.791C1.86899 682.791 0 684.66 0 686.962C0 689.264 1.86899 691.133 4.17114 691.133C6.47328 691.133 8.34227 689.264 8.34227 686.962C8.34227 684.66 6.47328 682.791 4.17114 682.791Z" fill="white"/>
<path d="M4.17114 758.658C1.86899 758.658 0 760.527 0 762.829C0 765.131 1.86899 767 4.17114 767C6.47328 767 8.34227 765.131 8.34227 762.829C8.34227 760.527 6.47328 758.658 4.17114 758.658Z" fill="white"/>
<path d="M80.0377 691.133C82.3414 691.133 84.2089 689.266 84.2089 686.962C84.2089 684.659 82.3414 682.791 80.0377 682.791C77.7341 682.791 75.8666 684.659 75.8666 686.962C75.8666 689.266 77.7341 691.133 80.0377 691.133Z" fill="white"/>
<path d="M80.0377 758.658C77.7356 758.658 75.8666 760.527 75.8666 762.829C75.8666 765.131 77.7356 767 80.0377 767C82.3399 767 84.2089 765.131 84.2089 762.829C84.2089 760.527 82.3399 758.658 80.0377 758.658Z" fill="white"/>
<path d="M155.904 691.133C158.208 691.133 160.075 689.266 160.075 686.962C160.075 684.659 158.208 682.791 155.904 682.791C153.601 682.791 151.733 684.659 151.733 686.962C151.733 689.266 153.601 691.133 155.904 691.133Z" fill="white"/>
<path d="M155.904 758.658C153.602 758.658 151.733 760.527 151.733 762.829C151.733 765.131 153.602 767 155.904 767C158.206 767 160.075 765.131 160.075 762.829C160.075 760.527 158.206 758.658 155.904 758.658Z" fill="white"/>
</g>
</svg>
