<svg width="269" height="52" viewBox="0 0 269 52" fill="none" xmlns="http://www.w3.org/2000/svg">
<g clip-path="url(#clip0_734_4489)">
<path d="M22.6265 0.633057C21.7147 0.633057 21.0295 1.11205 20.5762 2.07004L0.157978 50.1483C-0.205692 51.101 0.0683781 51.58 0.980189 51.58H15.1844C16.1805 51.58 16.8657 51.101 17.2294 50.1483L23.5646 35.2522L23.5804 35.21L28.7403 22.7299H28.7035L31.9818 14.887H31.987L37.8795 0.633057H22.6265Z" fill="#F47521"/>
<path d="M66.1255 5.88619C66.1255 7.4337 65.6933 9.22861 64.8289 11.2762L58.9522 25.1196C58.0879 27.1619 57.2235 28.8357 56.3591 30.1306C55.4947 31.4255 54.5039 32.4466 53.3865 33.1993C52.2744 33.952 50.9673 34.4731 49.4599 34.7679C47.9578 35.0627 46.1394 35.21 43.9996 35.21H25.658L30.8179 22.7299L34.0645 14.887L39.177 2.51745C39.6461 1.37523 40.7634 0.633057 41.9968 0.633057H58.3408C63.5271 0.633057 66.1255 2.38586 66.1255 5.88619Z" fill="#F47521"/>
<path d="M121.298 0.633057H107.093C106.182 0.633057 105.502 1.11205 105.048 2.07004L91.0498 35.0048C90.4542 36.4628 89.5687 37.1892 88.3829 37.1892H76.2289C75.3645 37.1892 74.9323 36.8734 74.9323 36.2365C74.9323 35.9627 75.043 35.5522 75.2749 35.0048L89.2736 2.07004C89.4106 1.70158 89.4791 1.43313 89.4791 1.2489C89.4791 0.838339 89.1366 0.633057 88.4514 0.633057H74.2471C73.3353 0.633057 72.6554 1.11205 72.2022 2.07004L55.7421 40.8737C55.0148 42.6002 54.6511 44.1425 54.6511 45.511C54.6511 47.5533 55.4101 49.0798 56.9386 50.0799C58.4618 51.08 60.5226 51.58 63.1209 51.58H89.2051C91.6137 51.58 93.6534 51.4169 95.3137 51.101C96.9792 50.7852 98.4233 50.2273 99.6514 49.4325C100.879 48.6376 101.96 47.5428 102.893 46.1585C103.826 44.7688 104.748 43.0108 105.66 40.8737L122.12 2.07004C122.257 1.70158 122.32 1.43313 122.32 1.2489C122.32 0.838339 121.983 0.633057 121.298 0.633057Z" fill="#F47521"/>
<path d="M153.121 37.1892H130.31L145.199 2.07004C145.563 1.11205 145.289 0.633057 144.377 0.633057H129.219C128.307 0.633057 127.627 1.11205 127.168 2.07004L106.75 50.1483C106.386 51.101 106.66 51.58 107.572 51.58H146.97C147.971 51.58 148.656 51.101 149.02 50.1483L153.938 38.6209C154.301 37.6682 154.027 37.1892 153.121 37.1892Z" fill="#F47521"/>
<path d="M217.512 0.633057H185.831C183.28 0.633057 181.129 0.785703 179.374 1.08047C177.625 1.37523 176.107 1.89634 174.836 2.64904C173.561 3.39648 172.465 4.43342 171.558 5.74933C170.646 7.07051 169.734 8.77594 168.823 10.8656L163.636 23.072C162.951 24.709 162.609 26.1408 162.609 27.3672C162.609 29.141 163.373 30.4517 164.896 31.2886C166.425 32.1308 168.823 32.5519 172.101 32.5519H189.309C190.174 32.5519 190.606 32.8467 190.606 33.4362C190.606 33.8046 190.516 34.1889 190.337 34.5995L190.2 34.8679C189.562 36.4154 188.629 37.1892 187.396 37.1892H160.153C159.151 37.1892 158.466 37.6682 158.102 38.6209L153.185 50.1483C152.821 51.101 153.095 51.58 154.007 51.58H188.698C191.017 51.58 192.988 51.4432 194.601 51.1695C196.219 50.8958 197.632 50.3957 198.839 49.6693C200.04 48.9429 201.079 47.9744 201.943 46.769C202.807 45.5637 203.63 44.053 204.404 42.237L209.796 29.62C210.618 27.7093 211.024 26.0986 211.024 24.7775C211.024 21.2771 208.067 19.5243 202.149 19.5243H184.255C183.391 19.5243 182.958 19.2085 182.958 18.5716C182.958 18.2979 183.074 17.8873 183.301 17.3452L183.438 17.0715C184.028 15.6187 184.94 14.887 186.168 14.887H211.435C212.437 14.887 213.122 14.4133 213.486 13.4553L218.334 2.07004C218.472 1.70158 218.535 1.43313 218.535 1.2489C218.535 0.838339 218.197 0.633057 217.512 0.633057Z" fill="#F47521"/>
<path d="M267.978 0.633057H228.164C227.252 0.633057 226.573 1.11205 226.119 2.07004L205.701 50.1483C205.337 51.101 205.606 51.58 206.518 51.58H246.806C247.808 51.58 248.493 51.101 248.857 50.1483L253.774 38.6209C254.138 37.6682 253.864 37.1892 252.952 37.1892H228.37L230.489 32.2098H252.546C253.5 32.2098 254.159 31.7308 254.522 30.778L258.554 21.2982C258.691 20.935 258.76 20.6613 258.76 20.4823C258.76 20.0718 258.417 19.8665 257.732 19.8665H235.675L237.794 14.887H261.901C262.897 14.887 263.583 14.4133 263.946 13.4553L268.795 2.07004C268.932 1.70158 269.001 1.43313 269.001 1.2489C269.001 0.838339 268.658 0.633057 267.978 0.633057Z" fill="#F47521"/>
</g>
<defs>
<clipPath id="clip0_734_4489">
<rect width="269" height="50.947" fill="white" transform="translate(0 0.633057)"/>
</clipPath>
</defs>
</svg>
