<svg width="73" height="66" viewBox="0 0 73 66" fill="none" xmlns="http://www.w3.org/2000/svg">
<path d="M18.7756 16.4844C18.0509 16.8247 17.6882 17.4553 17.6835 18.3872L19.4179 64.2156C19.4837 65.1053 19.8787 65.3892 20.6034 65.0489L31.8808 59.7538C32.6721 59.3823 33.0348 58.7516 32.973 57.8511L32.4426 43.6506L32.44 43.6067L31.8772 31.759L31.8476 31.7728L31.5236 24.3166L30.8852 10.7896L18.7796 16.4736L18.7756 16.4844Z" fill="white"/>
<path d="M55.264 4.45042C55.8404 5.67799 56.1704 7.26495 56.2465 9.21476L56.7469 22.4095C56.8231 24.3593 56.7569 26.0059 56.5626 27.3607C56.3575 28.7115 55.9556 29.893 55.3495 30.9087C54.7507 31.9208 53.9024 32.8245 52.8156 33.6237C51.7361 34.4193 50.3496 35.2147 48.6488 36.0133L34.088 42.8501L33.5251 31.0024L33.1789 23.5566L32.6208 11.815C32.5708 10.7284 33.173 9.72356 34.1566 9.26176L47.1274 3.17152C51.2464 1.23751 53.9624 1.65902 55.2715 4.44694L55.264 4.45042Z" fill="white"/>
</svg>
