<svg width="174" height="174" viewBox="0 0 174 174" fill="none" xmlns="http://www.w3.org/2000/svg">
<path d="M92.4832 22.0969L97.3157 22.7972C98.3534 22.9508 99.1041 23.3384 99.567 23.9784C100.03 24.6185 100.193 25.4082 100.052 26.3769C99.9155 27.3347 99.5174 28.0631 98.873 28.5552C98.2286 29.0473 97.3875 29.2166 96.3714 29.0709L93.1959 28.6125L92.6548 32.3233L91.0379 32.0897L92.4793 22.1078L92.4832 22.0969ZM96.5083 27.6709C97.0218 27.7457 97.4519 27.643 97.7948 27.3737C98.1377 27.1045 98.3489 26.6894 98.4246 26.1394C98.5077 25.5859 98.4237 25.138 98.1836 24.7995C97.9434 24.461 97.554 24.2467 97.0114 24.1675L93.8941 23.7179L93.3836 27.2247L96.5009 27.6744L96.5083 27.6709Z" fill="white"/>
<path d="M101.079 32.6001C100.522 31.4899 100.508 30.1154 101.049 28.4805C101.59 26.8456 102.418 25.744 103.531 25.1941C104.642 24.6367 105.965 24.6109 107.495 25.1201C109.032 25.6258 110.083 26.4412 110.64 27.5513C111.197 28.6615 111.211 30.036 110.67 31.6709C110.129 33.3058 109.301 34.4073 108.188 34.9573C107.078 35.5147 105.751 35.5331 104.213 35.0273C102.687 34.5255 101.647 33.7141 101.083 32.6074L101.079 32.6001ZM109.047 31.2325L109.103 31.0621C109.878 28.6764 109.203 27.1248 107.061 26.4251C104.933 25.7184 103.465 26.552 102.661 28.9332L102.605 29.1037C101.82 31.4671 102.505 33.0044 104.644 33.715C106.794 34.4295 108.265 33.6033 109.04 31.2359L109.047 31.2325Z" fill="white"/>
<path d="M114.037 27.4817L115.521 28.3552L113.66 35.1947C113.595 35.4416 113.437 35.9311 113.193 36.6597L113.254 36.6941L114.255 35.5383L119.033 30.4154L120.914 31.518L118.815 38.2164C118.732 38.4994 118.559 38.9776 118.312 39.6622L118.373 39.6966C118.884 39.1318 119.233 38.7603 119.424 38.5713L124.452 33.5934L125.81 34.3908L118.259 41.6636L116.493 40.6333L118.575 33.8797C118.698 33.5063 118.867 33.0025 119.102 32.3687L119.041 32.3343C118.577 32.9039 118.235 33.3085 118.006 33.5513L113.139 38.6794L111.374 37.649L114.025 27.5143L114.037 27.4817Z" fill="white"/>
<path d="M127.438 35.937L133.278 41.1464L132.349 42.187L127.725 38.0674L125.842 40.1882L129.983 43.8756L129.055 44.9162L124.914 41.2288L122.88 43.5103L127.568 47.69L126.64 48.7306L120.732 43.4719L127.441 35.9444L127.438 35.937Z" fill="white"/>
<path d="M135.269 43.217L138.555 47.3511C139.204 48.1748 139.502 48.9643 139.425 49.7226C139.348 50.4808 138.955 51.1436 138.246 51.7109C137.702 52.147 137.141 52.3926 136.562 52.4477C135.983 52.5029 135.42 52.3793 134.879 52.0554L132.917 56.4693L131.812 55.0752L133.686 50.9368L131.552 48.2565L128.384 50.7731L127.37 49.4982L135.273 43.2244L135.269 43.217ZM134.842 50.1686C135.168 50.575 135.535 50.7997 135.958 50.854C136.377 50.9009 136.797 50.7578 137.211 50.4281C137.606 50.1162 137.819 49.7633 137.855 49.3768C137.89 48.9903 137.739 48.5736 137.402 48.145L135.198 45.3715L132.641 47.4026L134.845 50.176L134.842 50.1686Z" fill="white"/>
<path d="M144.281 56.1606L147.447 62.6344L146.193 63.2503L143.743 58.2451L141.065 59.5569L143.278 64.0775L142.024 64.6934L139.814 60.1802L135.945 62.0692L135.228 60.6006L144.292 56.1645L144.281 56.1606Z" fill="white"/>
<path d="M148.382 65.1645L149.835 70.2402C150.121 71.2523 150.089 72.0884 149.729 72.763C149.369 73.4375 148.754 73.8974 147.879 74.1463C147.209 74.3344 146.594 74.3521 146.036 74.1812C145.477 74.0103 145.014 73.6772 144.632 73.1708L141.129 76.4941L140.641 74.7827L143.959 71.6813L143.017 68.3872L139.127 69.5009L138.68 67.9329L148.382 65.1645ZM145.318 71.4225C145.463 71.9231 145.717 72.2729 146.085 72.4793C146.453 72.6858 146.891 72.7148 147.402 72.574C147.88 72.4396 148.215 72.192 148.403 71.8422C148.591 71.4923 148.602 71.054 148.454 70.5277L147.478 67.1231L144.342 68.0178L145.318 71.4225Z" fill="white"/>
<path d="M142.483 78.0522C143.278 77.0924 144.53 76.5312 146.241 76.3688C147.963 76.2103 149.293 76.5245 150.253 77.3193C151.212 78.1141 151.76 79.3191 151.914 80.9163C152.065 82.5244 151.748 83.8103 150.953 84.7702C150.158 85.73 148.905 86.2912 147.187 86.4571C145.469 86.623 144.136 86.3014 143.176 85.5066C142.224 84.7083 141.669 83.5068 141.515 81.8913C141.368 80.2906 141.688 79.0121 142.472 78.0483L142.483 78.0522ZM146.932 84.7989L147.104 84.7812C149.599 84.5394 150.748 83.296 150.533 81.0503C150.322 78.8121 148.965 77.8065 146.471 78.03L146.298 78.0477C143.818 78.2825 142.684 79.5191 142.899 81.7647C143.11 84.0212 144.46 85.0303 146.932 84.7989Z" fill="white"/>
<path d="M152.192 88.7732L151.931 91.2154L145.273 92.6445C144.862 92.7294 144.264 92.8206 143.487 92.9148L143.478 92.973C144.279 93.2376 144.844 93.4416 145.169 93.5958L151.38 96.3658L151.127 98.768L141.099 97.7092L141.267 96.0871L147.817 96.775L149.613 97.0239L149.626 96.9183C149.199 96.7762 148.858 96.6471 148.612 96.5461L141.557 93.3605L141.705 91.9462L149.27 90.3347C149.424 90.2983 149.677 90.2607 150.04 90.2076L150.337 90.1674L150.347 90.0909L148.545 89.9441L141.994 89.2562L142.157 87.7179L152.192 88.7732Z" fill="white"/>
<path d="M149.72 105.421L149.067 107.01L142.035 106.124C141.784 106.088 141.278 106.01 140.525 105.867L140.494 105.936L141.775 106.76L147.516 110.78L146.691 112.791L139.765 111.648C139.473 111.604 138.975 111.504 138.263 111.352L138.232 111.42C138.857 111.849 139.285 112.144 139.493 112.299L145.125 116.586L144.526 118.041L136.276 111.58L137.05 109.692L144.028 110.81C144.418 110.871 144.938 110.979 145.603 111.127L145.634 111.058C145.007 110.685 144.557 110.4 144.285 110.203L138.524 106.103L139.298 104.214L149.705 105.428L149.72 105.421Z" fill="white"/>
<path d="M143.183 119.736L142.344 121.141L133.686 115.964L134.525 114.559L143.183 119.736Z" fill="white"/>
<path d="M138.168 124.799L140.189 122.126L141.312 122.979L136.276 129.631L135.154 128.777L137.175 126.104L130.258 120.868L131.244 119.566L138.161 124.802L138.168 124.799Z" fill="white"/>
<path d="M134.781 131.308L133.594 132.434L130.695 129.373L126.96 132.913L129.863 135.982L128.677 137.107L121.738 129.788L122.924 128.662L125.987 131.899L129.722 128.358L126.659 125.121L127.845 123.996L134.784 131.316L134.781 131.308Z" fill="white"/>
<path d="M126.266 138.835L124.952 139.804L118.972 131.682L120.286 130.713L126.266 138.835Z" fill="white"/>
<path d="M122.58 141.576L121.272 142.307L113.8 138.984C113.63 138.91 113.402 138.791 113.117 138.645L113.065 138.706L113.436 139.344L116.587 144.94L115.246 145.696L110.306 136.906L111.592 136.184L119.11 139.568C119.222 139.614 119.36 139.676 119.504 139.753C119.648 139.83 119.753 139.88 119.814 139.914L119.874 139.868L119.499 139.223L116.309 133.545L117.651 132.789L122.594 141.587L122.58 141.576Z" fill="white"/>
<path d="M82.0794 151.947L77.2421 151.294C76.2004 151.151 75.4498 150.764 74.9829 150.134C74.516 149.505 74.3459 148.701 74.4754 147.746C74.6015 146.785 74.9921 146.06 75.6404 145.557C76.2848 145.065 77.119 144.881 78.1424 145.023L81.315 145.456L81.8195 141.744L83.4369 141.959L82.0829 151.954L82.0794 151.947ZM78.0095 146.412C77.4995 146.344 77.0694 146.447 76.73 146.724C76.3906 147.001 76.1867 147.412 76.111 147.962C76.0353 148.512 76.1193 148.96 76.3594 149.299C76.5996 149.637 76.9929 149.84 77.5355 149.92L80.6572 150.34L81.1386 146.829L78.0169 146.408L78.0095 146.412Z" fill="white"/>
<path d="M73.3897 141.513C73.9618 142.617 73.9863 143.995 73.4561 145.634C72.9259 147.273 72.1093 148.378 71.0026 148.943C69.8959 149.508 68.5758 149.541 67.0456 149.05C65.5046 148.555 64.4499 147.751 63.8778 146.647C63.3057 145.544 63.2847 144.173 63.8114 142.527C64.338 140.881 65.1582 139.783 66.2649 139.218C67.3716 138.653 68.6991 138.616 70.2401 139.111C71.7703 139.602 72.8214 140.399 73.3971 141.51L73.3897 141.513ZM65.4346 142.947L65.3793 143.117C64.6149 145.507 65.3115 147.048 67.4615 147.744C69.5972 148.429 71.0581 147.581 71.8333 145.195L71.8887 145.025C72.6525 142.654 71.9629 141.127 69.8129 140.431C67.6554 139.738 66.1985 140.576 65.4346 142.947Z" fill="white"/>
<path d="M60.4768 146.746L58.9813 145.887L60.7805 139.032C60.845 138.785 60.9959 138.299 61.237 137.563L61.1757 137.528L60.1859 138.688L55.4536 143.852L53.5652 142.771L55.6095 136.053C55.6932 135.77 55.855 135.288 56.1021 134.604L56.0408 134.569C55.5333 135.142 55.1843 135.513 55.0006 135.699L50.0123 140.721L48.6503 139.935L56.1369 132.602L57.9062 133.621L55.8788 140.394C55.7672 140.772 55.5902 141.279 55.3627 141.909L55.4239 141.944C55.8767 141.37 56.2192 140.966 56.4481 140.723L61.2683 135.553L63.0376 136.573L60.4699 146.732L60.4768 146.746Z" fill="white"/>
<path d="M46.9818 138.399L41.097 133.247L42.0185 132.191L46.6762 136.268L48.5452 134.136L44.3741 130.481L45.2955 129.425L49.4667 133.08L51.4823 130.78L46.7602 126.644L47.6817 125.588L53.6308 130.8L46.9857 138.388L46.9818 138.399Z" fill="white"/>
<path d="M39.1009 131.187L35.7815 127.078C35.1183 126.261 34.8307 125.475 34.8896 124.717C34.9559 123.954 35.3487 123.292 36.0536 122.717C36.5979 122.281 37.156 122.028 37.7314 121.965C38.3067 121.903 38.8701 122.026 39.4142 122.339L41.3326 117.91L42.4532 119.297L40.6147 123.455L42.7674 126.117L45.9147 123.574L46.9432 124.842L39.1009 131.187ZM39.4735 124.234C39.1473 123.828 38.7726 123.606 38.3535 123.56C37.9344 123.513 37.5142 123.656 37.1039 123.993C36.7197 124.309 36.5063 124.662 36.4673 125.059C36.4282 125.456 36.5827 125.862 36.9375 126.291L39.1684 129.043L41.7078 126.994L39.4769 124.241L39.4735 124.234Z" fill="white"/>
<path d="M29.935 118.298L26.769 111.824L28.0231 111.208L30.4725 116.213L33.1508 114.901L30.938 110.381L32.1921 109.765L34.405 114.286L38.2709 112.389L38.9875 113.858L29.9241 118.294L29.935 118.298Z" fill="white"/>
<path d="M25.8028 109.362L24.3088 104.296C24.0083 103.291 24.0365 102.448 24.3966 101.773C24.746 101.095 25.3677 100.631 26.2367 100.368C26.903 100.172 27.5175 100.155 28.08 100.315C28.6425 100.475 29.1057 100.808 29.4954 101.311L32.966 97.9573L33.4685 99.6618L30.175 102.797L31.1501 106.084L35.0267 104.941L35.4888 106.502L25.8102 109.359L25.8028 109.362ZM28.8085 103.077C28.6637 102.577 28.4092 102.227 28.0268 102.027C27.6517 101.824 27.2138 101.795 26.7093 101.951C26.2344 102.093 25.8959 102.333 25.719 102.687C25.5422 103.04 25.5205 103.475 25.6792 104.005L26.6807 107.407L29.8135 106.486L28.812 103.085L28.8085 103.077Z" fill="white"/>
<path d="M31.593 96.4175C30.809 97.3812 29.5632 97.9572 27.8411 98.1339C26.1191 98.3107 24.7818 98 23.8255 97.2126C22.8582 96.4212 22.2992 95.2306 22.1415 93.626C21.9802 92.0139 22.2896 90.7315 23.0701 89.7603C23.8541 88.7966 25.0999 88.2206 26.8219 88.0438C28.5366 87.8705 29.8778 88.1704 30.8376 88.9652C31.7975 89.76 32.3673 90.9546 32.5251 92.5592C32.6903 94.1604 32.3809 95.4428 31.5969 96.4066L31.593 96.4175ZM27.0879 89.706L26.9157 89.7236C24.4239 89.9911 23.2858 91.2385 23.5191 93.4845C23.7455 95.7158 25.106 96.7106 27.6082 96.4653L27.7804 96.4476C30.2609 96.1945 31.3808 94.9467 31.1475 92.7006C30.9181 90.4437 29.5649 89.4455 27.0844 89.6986L27.0879 89.706Z" fill="white"/>
<path d="M21.7938 85.7935L22.026 83.347L28.6666 81.8626C29.078 81.7777 29.6725 81.6791 30.4535 81.5741L30.4623 81.5158C29.6572 81.2621 29.0921 81.0581 28.7596 80.9074L22.5222 78.1952L22.7569 75.7925L32.7979 76.7639L32.6408 78.39L26.0816 77.7604L24.2856 77.5297L24.2794 77.6319C24.7071 77.774 25.044 77.8956 25.29 77.9967L32.3724 81.1244L32.235 82.5427L24.6833 84.2202C24.5289 84.2566 24.2793 84.3016 23.9162 84.3548L23.6117 84.3985L23.6025 84.475L25.4048 84.6035L31.964 85.2331L31.82 86.7719L21.7791 85.8005L21.7938 85.7935Z" fill="white"/>
<path d="M24.1278 69.1196L24.7666 67.52L31.807 68.3479C32.0622 68.3725 32.5643 68.4616 33.3213 68.5936L33.3522 68.5249L32.0641 67.7037L26.2852 63.7384L27.0953 61.7154L34.0307 62.8002C34.322 62.8439 34.8167 62.9365 35.5293 63.0893L35.5602 63.0207C34.9275 62.5957 34.5033 62.3075 34.2952 62.1525L28.6253 57.9194L29.2131 56.4611L37.5197 62.8497L36.7601 64.7497L29.773 63.6892C29.3834 63.6284 28.8596 63.5314 28.1979 63.3909L28.1669 63.4595C28.801 63.8297 29.2508 64.1149 29.5203 64.3043L35.3117 68.354L34.5521 70.254L24.1347 69.1344L24.1278 69.1196Z" fill="white"/>
<path d="M30.5347 54.7575L31.3625 53.349L40.0663 58.45L39.2385 59.8586L30.5347 54.7575Z" fill="white"/>
<path d="M35.4993 49.6467L33.4959 52.3383L32.3617 51.499L37.3362 44.8131L38.4704 45.6524L36.467 48.344L43.4293 53.5226L42.4541 54.8289L35.4919 49.6502L35.4993 49.6467Z" fill="white"/>
<path d="M38.8475 43.0923L40.023 41.9628L42.9484 45.0025L46.651 41.4319L43.7255 38.3921L44.901 37.2626L51.9032 44.5254L50.7278 45.655L47.6346 42.4502L43.932 46.0209L47.0252 49.2256L45.8498 50.3551L38.8475 43.0923Z" fill="white"/>
<path d="M47.3092 35.4917L48.6163 34.5079L54.6629 42.5804L53.3559 43.5642L47.3092 35.4917Z" fill="white"/>
<path d="M50.9631 32.7202L52.2643 31.9739L59.7635 35.2398C59.9335 35.3135 60.1573 35.425 60.4459 35.5783L60.4986 35.5174L60.1195 34.8831L56.924 29.3077L58.2622 28.544L63.276 37.3L62.0044 38.0325L54.4626 34.7143C54.3431 34.6712 54.2131 34.6058 54.0688 34.5292C53.9245 34.4525 53.8198 34.4024 53.7585 34.368L53.7023 34.4215L54.0849 35.0632L57.3259 40.7165L55.9878 41.4802L50.974 32.7242L50.9631 32.7202Z" fill="white"/>
</svg>
