<svg width="21" height="17" viewBox="0 0 21 17" fill="none" xmlns="http://www.w3.org/2000/svg">
<path d="M20.8937 2.35987C20.1606 2.68566 19.3711 2.90508 18.5433 3.00481C19.3894 2.49783 20.036 1.69664 20.3435 0.740865C19.5523 1.20961 18.6763 1.55037 17.7438 1.73321C16.9991 0.937007 15.9336 0.440002 14.7584 0.440002C12.1155 0.440002 10.174 2.90508 10.7708 5.4649C7.37151 5.29369 4.35458 3.66471 2.33664 1.18966C1.26451 3.02808 1.78146 5.43498 3.60325 6.65339C2.93338 6.63178 2.30339 6.44727 1.75154 6.14142C1.70666 8.03636 3.06635 9.80995 5.03443 10.2056C4.4593 10.3618 3.82765 10.3984 3.18603 10.2754C3.70631 11.901 5.22059 13.0829 7.00915 13.1161C5.28542 14.4658 3.11955 15.0692 0.947021 14.8132C2.75884 15.9751 4.9081 16.6517 7.21859 16.6517C14.8183 16.6517 19.1101 10.2338 18.8508 4.47754C19.652 3.90241 20.3452 3.18101 20.8937 2.35987Z" fill="#141414"/>
</svg>
